<svg width="20" height="20" viewBox="0 0 20 20" fill="none" xmlns="http://www.w3.org/2000/svg">
    <path
        d="M6.4974 1.6665H13.4974C16.1641 1.6665 18.3307 3.83317 18.3307 6.49984V13.4998C18.3307 14.7817 17.8215 16.0111 16.9151 16.9175C16.0087 17.8239 14.7793 18.3332 13.4974 18.3332H6.4974C3.83073 18.3332 1.66406 16.1665 1.66406 13.4998V6.49984C1.66406 5.21796 2.17329 3.98858 3.07971 3.08215C3.98614 2.17573 5.21552 1.6665 6.4974 1.6665ZM6.33073 3.33317C5.53508 3.33317 4.77202 3.64924 4.20941 4.21185C3.6468 4.77446 3.33073 5.53752 3.33073 6.33317V13.6665C3.33073 15.3248 4.6724 16.6665 6.33073 16.6665H13.6641C14.4597 16.6665 15.2228 16.3504 15.7854 15.7878C16.348 15.2252 16.6641 14.4622 16.6641 13.6665V6.33317C16.6641 4.67484 15.3224 3.33317 13.6641 3.33317H6.33073ZM14.3724 4.58317C14.6487 4.58317 14.9136 4.69292 15.109 4.88827C15.3043 5.08362 15.4141 5.34857 15.4141 5.62484C15.4141 5.9011 15.3043 6.16606 15.109 6.36141C14.9136 6.55676 14.6487 6.6665 14.3724 6.6665C14.0961 6.6665 13.8312 6.55676 13.6358 6.36141C13.4405 6.16606 13.3307 5.9011 13.3307 5.62484C13.3307 5.34857 13.4405 5.08362 13.6358 4.88827C13.8312 4.69292 14.0961 4.58317 14.3724 4.58317ZM9.9974 5.83317C11.1025 5.83317 12.1623 6.27216 12.9437 7.05356C13.7251 7.83496 14.1641 8.89477 14.1641 9.99984C14.1641 11.1049 13.7251 12.1647 12.9437 12.9461C12.1623 13.7275 11.1025 14.1665 9.9974 14.1665C8.89233 14.1665 7.83252 13.7275 7.05112 12.9461C6.26972 12.1647 5.83073 11.1049 5.83073 9.99984C5.83073 8.89477 6.26972 7.83496 7.05112 7.05356C7.83252 6.27216 8.89233 5.83317 9.9974 5.83317ZM9.9974 7.49984C9.33435 7.49984 8.69847 7.76323 8.22963 8.23207C7.76079 8.70091 7.4974 9.3368 7.4974 9.99984C7.4974 10.6629 7.76079 11.2988 8.22963 11.7676C8.69847 12.2364 9.33435 12.4998 9.9974 12.4998C10.6604 12.4998 11.2963 12.2364 11.7652 11.7676C12.234 11.2988 12.4974 10.6629 12.4974 9.99984C12.4974 9.3368 12.234 8.70091 11.7652 8.23207C11.2963 7.76323 10.6604 7.49984 9.9974 7.49984Z"
        fill="#111111" />
</svg>